Source : NGB

Format : AVI
Format/Info : Audio Video Interleave
File size : 701 MiB
Duration : 1h 24mn
Overall bit rate : 1 167 Kbps
Writing library : VirtualDub build 32842/release

Video
ID : 0
Format : MPEG-4 Visual
Format profile : Advanced Simple@L5
Format settings, BVOP : 4
Format settings, QPel : No
Format settings, GMC : No warppoints
Format settings, Matrix : Default (H.263)
Muxing mode : Packed bitstream
Codec ID : XVID
Codec ID/Hint : XviD
Duration : 1h 24mn
Bit rate : 1 029 Kbps
Width : 640 pixels
Height : 352 pixels
Display aspect ratio : 16:9
Frame rate : 23.976 fps
Color space : YUV
Chroma subsampling : 4:2:0
Bit depth : 8 bits
Scan type : Progressive
Compression mode : Lossy
Bits/(Pixel*Frame) : 0.191
Stream size : 618 MiB (88%)
Writing library : XviD 64

Audio
ID : 1
Format : MPEG Audio
Format version : Version 1
Format profile : Layer 3
Codec ID : 55
Codec ID/Hint : MP3
Duration : 1h 24mn
Bit rate mode : Constant
Bit rate : 128 Kbps
Channel(s) : 2 channels
Sampling rate : 44.1 KHz
Compression mode : Lossy
Stream size : 76.9 MiB (11%)
Alignment : Split accross interleaves
Interleave, duration : 42 ms (1.00 video frame)
Interleave, preload duration : 500 ms
Writing library : LAME3.99r
Encoding settings : -m s -V 4 -q 3 -lowpass 17 -b 128


Plot
Robert asks Jenny, a girl he found on Craigslist, to be his new roommate. Now after a year of living together, he finds himself falling in love with her, but his ability to keep afloat in San Francisco is coming to an end. With a lame job and not enough income, he has no choice but to move back with his parents in Rochester, NY.

 
http://www.shotpix.com/images/73555935517594823209.png 
http://www.shotpix.com/images/51750390509896832077.png 
http://www.shotpix.com/images/59245851318824436956.png